# File created by Blade
# Date/Time:  Thu Jan 22 16:21:39 2015
# Frame Rate: 120.000 fps
#------------------------------------------------------
:FULLY-SPECIFIED
:DEGREES
953
root 6.931614 36.881964 3.868712 -7.336900 -3.291917 1.765830
RightUpLeg 8.297665 3.486081 -11.456604
RightLeg 0.122400 -0.000000 -0.000000
RightFoot -7.871287 -10.433357 19.164857
RightToeBase 9.722519 -0.000000 -0.000000
LeftUpLeg 5.683113 -10.850736 2.787467
LeftLeg 13.442173 -0.000000 -0.000000
LeftFoot -14.768327 5.649432 -16.724214
LeftToeBase 4.467708 -0.000000 -0.000000
Spine 14.963228 -7.981943 -4.623542
RightShoulder -6.169360 -17.234879 -23.616546
RightArm 18.270049 26.601299 39.637245
RightForeArm 3.084905 -0.000000 21.307728
RightHand 6.813275 -0.000000 -13.581494
RightHandThumb1 -24.326973 -0.000000 -32.862282
LeftShoulder -25.613654 34.552907 10.195811
LeftArm 50.499933 -43.190395 -63.824400
LeftForeArm 33.772671 -0.000000 13.368220
LeftHand -20.951755 -0.000000 -1.260536
LeftHandThumb1 -26.253704 0.000000 33.147579
Head 3.142053 12.297962 2.868490
954
root 6.767939 36.892107 3.886498 -7.205761 -3.364426 1.638235
RightUpLeg 8.312458 3.556502 -11.056397
RightLeg -0.072184 -0.000000 0.000000
RightFoot -7.920334 -10.546336 18.971664
RightToeBase 9.791754 -0.000000 -0.000000
LeftUpLeg 5.723810 -10.703235 3.194149
LeftLeg 13.192416 -0.000000 -0.000000
LeftFoot -14.582755 5.606945 -16.889777
LeftToeBase 4.460675 -0.000000 -0.000000
Spine 14.809444 -7.827872 -4.125000
RightShoulder -6.094686 -17.011631 -23.842562
RightArm 18.092729 26.576636 39.372032
RightForeArm 3.193693 0.000000 21.109662
RightHand 6.704862 -0.000000 -13.392348
RightHandThumb1 -24.326973 -0.000000 -32.862282
LeftShoulder -25.685193 34.493121 10.086782
LeftArm 50.511667 -43.178030 -63.963446
LeftForeArm 33.842591 -0.000000 13.168417
LeftHand -20.842012 -0.000000 -1.424763
LeftHandThumb1 -26.253704 0.000000 33.147579
Head 3.088873 12.318894 2.459529
955
root 6.610424 36.900572 3.899762 -7.031640 -3.432775 1.581190
RightUpLeg 8.249282 3.509144 -10.759441
RightLeg -0.213476 -0.000000 0.000000
RightFoot -7.982478 -10.520897 18.763072
RightToeBase 9.898512 -0.000000 -0.000000
LeftUpLeg 5.714740 -10.581913 3.515092
LeftLeg 12.936001 -0.000000 -0.000000
LeftFoot -14.393716 5.663390 -17.068874
LeftToeBase 4.309981 -0.000000 -0.000000
Spine 14.608229 -7.647276 -3.720772
RightShoulder -6.079023 -16.915173 -24.001796
RightArm 18.029926 26.560307 39.120078
RightForeArm 3.424138 -0.000000 20.893725
RightHand 6.571076 -0.000000 -13.201153
RightHandThumb1 -24.326973 -0.000000 -32.862282
LeftShoulder -25.760380 34.439681 9.988804
LeftArm 50.560978 -43.168551 -64.088998
LeftForeArm 34.062869 -0.000000 12.928504
LeftHand -20.790195 0.000000 -1.586985
LeftHandThumb1 -26.253704 0.000000 33.147579
Head 3.033023 12.304650 2.156605
956
root 6.457073 36.908500 3.913727 -6.848554 -3.416516 1.578876
RightUpLeg 8.199038 3.262020 -10.543087
RightLeg -0.343727 -0.000000 0.000000
RightFoot -8.072022 -10.438905 18.468080
RightToeBase 10.015695 -0.000000 -0.000000
LeftUpLeg 5.660473 -10.427538 3.784515
LeftLeg 12.709741 -0.000000 -0.000000
LeftFoot -14.165886 5.655155 -17.207016
LeftToeBase 4.226194 -0.000000 -0.000000
Spine 14.385661 -7.549405 -3.424375
RightShoulder -6.028627 -16.827341 -24.145795
RightArm 17.997609 26.739433 39.012089
RightForeArm 3.455945 -0.000000 20.708720
RightHand 6.444868 -0.000000 -13.090377
RightHandThumb1 -24.326973 -0.000000 -32.862282
LeftShoulder -25.843333 34.435567 9.906708
LeftArm 50.645515 -43.217419 -64.249118
LeftForeArm 34.276001 -0.000000 12.692572
LeftHand -20.619249 -0.000000 -1.799255
LeftHandThumb1 -26.253704 0.000000 33.147579
Head 3.051322 12.266365 1.948003
957
root 6.304313 36.916169 3.926099 -6.682863 -3.412714 1.605101
RightUpLeg 8.196777 3.284860 -10.350724
RightLeg -0.547109 -0.000000 0.000000
RightFoot -8.184667 -10.422087 18.420379
RightToeBase 10.063478 -0.000000 -0.000000
LeftUpLeg 5.641370 -10.263518 4.024968
LeftLeg 12.433089 -0.000000 -0.000000
LeftFoot -13.916090 5.687135 -17.394002
LeftToeBase 4.107636 -0.000000 -0.000000
Spine 14.193001 -7.442912 -3.180991
RightShoulder -5.972954 -16.695005 -24.288317
RightArm 17.910920 26.746153 38.845470
RightForeArm 3.619788 -0.000000 20.546789
RightHand 6.274998 -0.000000 -13.110368
RightHandThumb1 -24.326973 -0.000000 -32.862282
LeftShoulder -25.888987 34.353581 9.867535
LeftArm 50.596870 -43.266918 -64.302562
LeftForeArm 34.444220 -0.000000 12.443789
LeftHand -20.604921 -0.000000 -1.703755
LeftHandThumb1 -26.253704 0.000000 33.147579
Head 3.043009 12.269651 1.751914
958
root 6.153214 36.925682 3.936782 -6.518316 -3.377881 1.597373
RightUpLeg 8.227364 3.399795 -10.133643
RightLeg -0.801138 -0.000000 0.000000
RightFoot -8.295658 -10.406134 18.526499
RightToeBase 10.188304 -0.000000 -0.000000
LeftUpLeg 5.589637 -10.079162 4.303241
LeftLeg 12.217872 -0.000000 -0.000000
LeftFoot -13.659003 5.634336 -17.572733
LeftToeBase 3.983480 -0.000000 -0.000000
Spine 14.006134 -7.350123 -2.893903
RightShoulder -5.961867 -16.597352 -24.413642
RightArm 17.844501 26.829952 38.733753
RightForeArm 3.859310 -0.000000 20.480740
RightHand 6.126127 -0.000000 -13.161565
RightHandThumb1 -24.326973 -0.000000 -32.862282
LeftShoulder -25.863062 34.244651 9.867785
LeftArm 50.471747 -43.305965 -64.326912
LeftForeArm 34.655581 -0.000000 12.208459
LeftHand -20.621257 -0.000000 -1.590928
LeftHandThumb1 -26.253704 0.000000 33.147579
Head 3.069033 12.309870 1.622442
